<?xml version="1.0" encoding="iso-8859-1"?>
<!-- Uploaded to: SVG Repo, www.svgrepo.com, Generator: SVG Repo Mixer Tools -->
<svg fill="#000000" height="800px" width="800px" version="1.1" id="Layer_1" xmlns="http://www.w3.org/2000/svg" xmlns:xlink="http://www.w3.org/1999/xlink" 
	 viewBox="0 0 511.999 511.999" xml:space="preserve">
<g>
	<g>
		<path d="M469.333,213.333H312.889H42.666c-11.782,0-21.333,9.552-21.333,21.333v99.556c0,50.974,41.471,92.444,92.444,92.444h128
			c50.974,0,92.444-41.471,92.444-92.444v-78.222h135.111c11.782,0,21.333-9.552,21.333-21.333S481.115,213.333,469.333,213.333z
			 M291.555,334.222c0,27.447-22.33,49.778-49.778,49.778h-128C86.33,383.999,64,361.669,64,334.222v-78.222h227.556V334.222z"/>
	</g>
</g>
<g>
	<g>
		<path d="M270.222,469.333H85.333c-11.782,0-21.333,9.552-21.333,21.333s9.552,21.333,21.333,21.333h184.889
			c11.782,0,21.333-9.552,21.333-21.333S282.004,469.333,270.222,469.333z"/>
	</g>
</g>
<g>
	<g>
		<path d="M121.748,91.579c-10.459-10.46-15.083-15.589-15.081-27.581c-0.001-11.989,4.624-17.119,15.086-27.581
			c8.331-8.33,8.331-21.838,0.001-30.168c-8.33-8.333-21.84-8.33-30.171-0.001C79.941,17.888,63.995,33.831,64,63.998
			c-0.004,30.17,15.939,46.111,27.581,57.752c10.46,10.459,15.086,15.59,15.086,27.583c0,11.782,9.552,21.333,21.333,21.333
			s21.333-9.552,21.333-21.333C149.333,119.16,133.39,103.219,121.748,91.579z"/>
	</g>
</g>
<g>
	<g>
		<path d="M235.525,91.579c-10.459-10.459-15.083-15.588-15.081-27.581c-0.001-11.989,4.624-17.119,15.086-27.581
			c8.331-8.33,8.331-21.838,0.001-30.168c-8.33-8.333-21.84-8.33-30.171-0.001c-11.642,11.641-27.587,27.584-27.584,57.751
			c-0.004,30.17,15.939,46.111,27.581,57.752c10.462,10.459,15.087,15.59,15.087,27.583c0,11.782,9.552,21.333,21.333,21.333
			s21.333-9.552,21.333-21.333C263.111,119.16,247.168,103.219,235.525,91.579z"/>
	</g>
</g>
</svg>